<svg width="557" height="472" viewBox="0 0 557 472" fill="none" xmlns="http://www.w3.org/2000/svg">
<g clip-path="url(#clip0_276_182)">
<path d="M0 345.471V349.054L114.881 363.912L305.007 388.425L322.809 390.73L385.376 387.568L421.562 385.738L481.704 382.695L518.166 380.851L525.638 367.784L536.364 349.054V343.983C533.056 342.876 531.383 338.793 526.652 334.552C519.813 328.427 506.57 321.986 472.783 323.804C415.605 326.873 344.592 298.909 261.837 310.013C179.082 321.116 187.226 307.8 134.2 307.378C89.4884 307.049 20.5701 336.277 0 345.471Z" fill="#39C0F0"/>
<path d="M113.999 273.658V307.694C113.999 334.236 185.473 355.758 273.67 355.758C361.867 355.758 433.329 334.236 433.329 307.694V273.658H113.999Z" fill="#F37021" stroke="#231F20" stroke-width="2" stroke-miterlimit="10"/>
<path d="M273.591 318.89C185.414 318.89 113.933 299.034 113.933 274.541C113.933 250.047 185.414 230.191 273.591 230.191C361.768 230.191 433.25 250.047 433.25 274.541C433.25 299.034 361.768 318.89 273.591 318.89Z" fill="#F68849" stroke="#231F20" stroke-width="2" stroke-miterlimit="10"/>
<path d="M124.699 272.157C124.699 293.377 191.614 310.592 274.158 310.592C356.702 310.592 423.617 293.377 423.617 272.157C423.62 271.012 423.423 269.876 423.037 268.798C422.682 289.952 355.911 307.062 273.591 307.062C195.449 307.062 131.274 291.651 124.686 271.985C124.683 272.043 124.688 272.1 124.699 272.157Z" fill="#C45728"/>
<path d="M124.712 271.986C131.301 291.651 195.449 307.062 273.618 307.062C355.938 307.062 422.708 289.939 423.064 268.798C416.475 249.132 352.327 233.721 274.158 233.721C191.838 233.721 125.068 250.832 124.712 271.986Z" fill="#FCD1BA"/>
<path d="M124.132 268.627C124.13 269.771 124.326 270.908 124.712 271.985C131.301 291.651 195.449 307.062 273.618 307.062C355.938 307.062 422.708 289.939 423.064 268.798C423.07 268.741 423.07 268.684 423.064 268.627C423.064 247.407 356.148 230.191 273.605 230.191C191.061 230.191 124.132 247.407 124.132 268.627Z" fill="#FCD1BA"/>
<path d="M269.889 296.946C197.41 296.946 138.654 285.057 138.654 270.392C138.654 255.726 197.41 243.837 269.889 243.837C342.367 243.837 401.123 255.726 401.123 270.392C401.123 285.057 342.367 296.946 269.889 296.946Z" fill="#F68849"/>
<path d="M460.738 62.4872C467.129 66.0963 469.106 73.8941 458.103 74.961C452.595 75.4879 415.026 55.7696 409.043 56.1252C401.136 56.5863 391.043 58.1932 386.272 58.7596C372.897 60.5115 371.553 61.776 371.553 61.776L399.226 121.984C426.226 172.551 445.07 235.776 345.145 256.008C345.145 256.008 225.704 276.069 157.05 256.008C126.53 247.091 10.7792 213.068 10.7792 213.068C10.7792 213.068 30.282 214.754 45.7919 202.082C69.1029 183.023 83.6772 186.276 83.6772 186.276C83.6772 186.276 87.9467 183.919 84.995 174.277C83.7826 170.325 91.1225 168.442 91.2411 166.123C91.8341 154.387 90.4504 148.565 97.7244 147.353C102.244 146.603 104.102 139.78 103.694 135.499C102.047 118.454 109.624 126.16 112.918 122.077C115.804 118.529 118.944 115.197 122.314 112.106C127.36 107.488 132.772 103.286 138.496 99.5397C143.095 96.5365 143.213 90.214 147.97 87.9616C151.212 86.4337 159.053 88.7783 162.347 87.5665C165.641 86.3546 167.447 79.0311 170.86 78.0959C174.997 76.9763 180.835 82.2845 185.052 81.5864C190.903 80.6117 194.553 75.1981 200.456 75.0005C205.846 74.7897 213.502 79.7029 218.905 80.0321C224.742 80.3878 228.603 75.883 234.388 76.7919C239.593 77.6085 246.722 83.7993 251.835 84.9848C256.21 86.0122 260.559 87.1581 264.828 88.4094C323.561 105.533 366.427 133.51 366.427 133.51C366.427 133.51 337.305 82.4031 332.917 49.8686C331.994 42.9929 331.928 15.1344 348.334 5.59803C364.74 -3.93839 387.867 4.33354 401.505 14.489C423.459 30.6772 416.765 34.4312 426.121 41.0698C440.392 51.1068 459.842 61.9867 460.738 62.4872Z" fill="#2DBCAF" stroke="#231F20" stroke-width="2" stroke-miterlimit="10"/>
<path d="M120.152 114.292C108.622 135.156 121.76 148.289 120.732 161.711C118.097 195.668 142.343 215.294 142.343 215.294C142.343 215.294 105.209 203.9 83.7167 186.316" stroke="#231F20" stroke-width="2" stroke-miterlimit="10"/>
<path d="M370.71 137.277C370.71 137.277 378.498 152.517 384.586 162.633C384.586 162.633 312.03 145.509 295.084 121.892C278.138 98.2752 370.71 137.277 370.71 137.277Z" fill="#00A394"/>
<path d="M385.192 57.1C385.192 57.1 362.54 40.2927 353.803 25.4875C345.066 10.6824 370.472 60.1163 370.472 60.1163L385.192 57.1Z" fill="#00A394"/>
<path d="M129.14 110.644C125.945 121.513 125.945 133.072 129.14 143.942C134.529 161.763 126.504 170.51 134.187 184.301C141.869 198.091 156.061 220.286 156.061 220.286L152.582 219.364C152.582 219.364 145.994 217.256 137.217 205.481C128.441 193.705 126.451 184.801 124.04 174.369C121.628 163.937 125.74 162.975 122.722 152.464C120.087 143.52 116.647 134.603 118.901 126.12C122.077 114.292 129.14 110.644 129.14 110.644Z" fill="#00A394"/>
<path d="M423.604 38.8965C423.604 38.8965 413.444 41.5309 411.415 47.4845C409.386 53.4382 411.415 56.4941 411.415 56.4941C411.415 56.4941 454.453 74.5132 456.218 74.7371C457.984 74.961 465.891 74.7371 465.812 68.6912C465.812 65.7539 463.611 64.1601 460.672 62.4873C457.734 60.8144 439.154 48.8281 435.767 47.4845C432.38 46.141 423.604 38.8965 423.604 38.8965Z" fill="#F68849" stroke="#231F20" stroke-miterlimit="10"/>
<path d="M380.883 93.7309C380.883 93.7309 438.099 174.277 398.633 222.881C381.766 243.653 332.666 256.509 332.666 256.509C332.666 256.509 379.38 246.34 398.791 229.73C448.747 186.961 380.883 93.7309 380.883 93.7309Z" fill="#EAF5F4"/>
<path d="M336.791 38.8965L388.539 162.633L364.029 121.471C364.029 121.471 343.445 78.0037 340.467 65.609C338.534 56.8165 337.305 47.8841 336.791 38.8965Z" fill="#00A394"/>
<path d="M142.343 219.746L109.347 239.451L27.1984 215.307L111.1 204.361L142.343 219.746Z" fill="#00A394"/>
<path d="M83.9276 191.229L82.6098 190.294C82.2904 190.063 81.9245 189.905 81.5377 189.83C81.1508 189.755 80.7522 189.765 80.3696 189.859C76.2714 190.9 63.1335 194.351 59.8127 196.866C54.7474 200.716 49.3949 204.173 43.802 207.206C43.2339 207.519 42.7971 208.025 42.5717 208.633C42.3463 209.241 42.3471 209.91 42.5742 210.517C42.8012 211.124 43.2392 211.63 43.8082 211.941C44.3772 212.252 45.0392 212.348 45.6733 212.212C50.3928 211.313 54.995 209.881 59.3911 207.944C64.0032 205.692 76.9567 199.132 83.5191 195.8C83.9447 195.607 84.3115 195.305 84.582 194.925C84.8525 194.544 85.017 194.098 85.0585 193.633C85.1001 193.168 85.0172 192.701 84.8185 192.278C84.6198 191.856 84.3123 191.494 83.9276 191.229Z" fill="#7CF9E2"/>
<path d="M417.147 29.0571H386.747L404.325 56.5072H411.415C410.514 55.1774 410.033 53.6083 410.033 52.0024C410.033 50.3965 410.514 48.8274 411.415 47.4977C414.564 42.6899 423.604 38.9096 423.604 38.9096L417.147 29.0571Z" fill="#231F20"/>
<path d="M411.415 26.8705C411.415 26.8705 396.3 14.2387 390.133 11.0643C382.148 6.94153 368.021 3.66174 368.021 3.66174C368.021 3.66174 384.586 9.95789 389.725 12.5791C395.444 15.5032 411.415 26.8705 411.415 26.8705Z" fill="white"/>
<path d="M448.088 56.5072C448.088 56.5072 455.046 61.7759 454.545 65.7275C454.044 69.6791 439.009 66.1095 439.009 66.1095C439.009 66.1095 451.791 71.668 455.322 72.6954C458.854 73.7228 462.899 71.8524 463.229 70.061C463.508 68.7123 463.288 67.3083 462.609 66.1095C461.918 65.4022 461.128 64.7988 460.264 64.3181L448.088 56.5072Z" fill="#FCE8DC"/>
<path d="M104.867 130.862L113.037 149.724L104.867 142.506V130.862Z" fill="#00A394"/>
<path d="M93.6262 159.59V167.375L109.4 175.95L93.6262 159.59Z" fill="#00A394"/>
<path d="M94.7463 154.664C94.4168 155.783 94.9044 156.561 95.8664 156.376C97.0787 156.152 96.2222 154.954 97.474 152.965C98.1329 151.898 100.241 149.54 98.9763 149.54C97.7112 149.54 95.1021 153.465 94.7463 154.664Z" fill="white"/>
<path d="M233.031 100.765C265.777 110.828 333.286 160.143 325.893 185.723C318.5 211.303 313.546 228.097 259.491 227.425C205.437 226.753 181.889 217.335 167.078 195.141C152.266 172.946 142.343 72.893 233.031 100.765Z" fill="#48D7BD"/>
<path d="M404.879 299.778V335.79" stroke="#231F20" stroke-width="2" stroke-miterlimit="10"/>
<path d="M374.9 345.195V309.183" stroke="#231F20" stroke-width="2" stroke-miterlimit="10"/>
<path d="M344.42 315.347V351.359" stroke="#231F20" stroke-width="2" stroke-miterlimit="10"/>
<path d="M314.442 317.573V353.585" stroke="#231F20" stroke-width="2" stroke-miterlimit="10"/>
<path d="M283.356 319.602V355.614" stroke="#231F20" stroke-width="2" stroke-miterlimit="10"/>
<path d="M252.876 318.495V354.494" stroke="#231F20" stroke-width="2" stroke-miterlimit="10"/>
<path d="M222.897 316.467V352.479" stroke="#231F20" stroke-width="2" stroke-miterlimit="10"/>
<path d="M191.087 312.713V348.725" stroke="#231F20" stroke-width="2" stroke-miterlimit="10"/>
<path d="M160.067 305.745V341.757" stroke="#231F20" stroke-width="2" stroke-miterlimit="10"/>
<path d="M132.315 294.72V330.719" stroke="#231F20" stroke-width="2" stroke-miterlimit="10"/>
<path d="M127.492 302.953V318.337C127.491 318.623 127.403 318.902 127.238 319.135C127.074 319.369 126.842 319.547 126.573 319.645C126.304 319.742 126.012 319.755 125.736 319.681C125.46 319.608 125.213 319.451 125.028 319.233L118.94 312.081C118.377 311.414 118.069 310.569 118.07 309.697V296.235C118.059 295.981 118.122 295.73 118.25 295.511C118.379 295.291 118.568 295.114 118.795 295C119.022 294.886 119.277 294.84 119.529 294.867C119.782 294.895 120.021 294.995 120.218 295.155L125.608 299.199C126.192 299.635 126.667 300.201 126.994 300.853C127.321 301.505 127.492 302.223 127.492 302.953Z" fill="#F69167"/>
<path d="M156.167 315.927L155.771 333.129C155.77 333.413 155.682 333.69 155.519 333.922C155.356 334.155 155.127 334.332 154.86 334.431C154.594 334.53 154.304 334.545 154.029 334.475C153.754 334.405 153.507 334.252 153.32 334.038L138.548 327.65C137.984 326.989 137.676 326.148 137.679 325.279L136.993 308.669C136.982 308.415 137.045 308.164 137.173 307.945C137.302 307.726 137.491 307.548 137.718 307.434C137.945 307.32 138.2 307.274 138.452 307.301C138.705 307.329 138.944 307.429 139.141 307.589L154.282 312.173C154.864 312.611 155.337 313.178 155.664 313.829C155.991 314.48 156.163 315.198 156.167 315.927Z" fill="#F69167"/>
<path d="M162.821 310.592C162.821 310.592 178.779 311.422 181.691 314.702C184.604 317.982 184.525 326.859 184.801 333.353C185.065 339.373 188.623 344.865 185.473 343.746C182.324 342.626 168.883 341.335 166.182 337.608C163.48 333.88 162.821 310.592 162.821 310.592Z" fill="#F69167"/>
<path d="M194.619 316.467L212.566 319.246C212.566 319.246 215.479 319.944 215.479 322.592C215.479 325.239 218.114 347.434 216.599 348.725C215.083 350.016 194.619 346.881 194.619 346.881V316.467Z" fill="#F69167"/>
<path d="M226.877 320.919C226.877 320.919 238.592 320.655 239.831 322.104C241.069 323.553 241.926 347.131 241.386 349.041C240.845 350.951 240.305 352.347 239.528 352.479C238.75 352.61 227.352 351.478 226.495 350.476C225.638 349.475 225.098 324.581 225.638 322.816C226.179 321.051 226.877 320.919 226.877 320.919Z" fill="#F69167"/>
<path d="M258.055 323.764C258.055 323.764 269.757 323.527 270.995 324.805C272.234 326.082 273.091 346.709 272.55 348.343C272.01 349.976 271.47 351.24 270.692 351.346C269.915 351.451 258.516 350.476 257.66 349.594C256.803 348.711 256.263 326.965 256.803 325.397C257.344 323.83 258.055 323.764 258.055 323.764Z" fill="#F69167"/>
<path d="M287.731 321.907C287.731 321.907 305.481 321.657 307.352 323.026C309.223 324.396 310.528 346.499 309.711 348.264C308.894 350.029 308.064 351.359 306.891 351.478C305.718 351.596 288.442 350.556 287.125 349.607C285.807 348.659 285.016 325.345 285.807 323.659C286.598 321.973 287.731 321.907 287.731 321.907Z" fill="#F69167"/>
<path d="M320.398 320.51C323.534 319.588 334.076 317.494 337.107 319.193C340.138 320.892 339.005 335.711 337.884 339.86C336.764 344.009 337.436 347.645 331.388 348.619C325.34 349.594 323.864 351.254 321.399 349.726C318.935 348.198 317.697 326.319 318.593 323.382C319.489 320.445 320.398 320.51 320.398 320.51Z" fill="#F69167"/>
<path d="M349.296 316.862C351.642 315.9 356.162 313.911 360.089 314.702C364.015 315.492 364.911 338.701 363.91 340.611C362.908 342.521 353.368 347.895 350.219 347.197C347.069 346.499 346.858 342.6 346.858 342.6C346.858 342.6 346.977 321.103 346.858 319.575C346.74 318.047 349.296 316.862 349.296 316.862Z" fill="#F69167"/>
<path d="M378.102 315.571L377.615 335.118C377.615 337.753 379.433 339.702 381.436 339.267C386.378 338.174 394.614 335.816 396.617 331.838C399.542 326.03 397.934 307.431 396.089 307.062C394.772 306.812 386.865 308.564 381.937 309.696C379.71 310.21 378.102 312.673 378.102 315.571Z" fill="#F69167"/>
<path d="M409.069 307.721C408.955 306.443 409.272 305.164 409.969 304.088C410.666 303.011 411.704 302.199 412.917 301.78C415.556 301.056 417.998 299.746 420.059 297.947C424.935 293.574 425.528 290.044 426.859 292.073C428.19 294.101 428.045 309.552 426.859 312.924C425.673 316.296 424.553 319.813 418.32 324.357C412.087 328.901 410.005 329.56 410.005 328.387C410.005 327.558 409.412 315.044 409.069 307.721Z" fill="#F69167"/>
<path d="M0 348.251L0.843384 348.422L0 348.988V472H557V348.185L556.565 347.855C547.577 341.508 537.426 336.992 526.692 334.565C509.732 330.732 487.317 331.404 463.743 348.224C440.998 364.452 403.429 329.863 369.326 329.863C331.968 329.863 292.514 348.224 254.471 348.224C185.473 348.224 121.101 326.504 82.2013 326.504C64.214 326.504 16.8277 340.993 0.0527344 346.262L0 348.251Z" fill="#39C0F0"/>
<path d="M0 396.038V463.649C21.7824 457.827 67.0735 446.526 94.6409 445.551C131.946 444.234 203.83 456.312 225.428 455.641C247.026 454.969 294.043 458.275 318.303 449.595C342.562 440.914 380.316 447.579 405.182 452.229C430.048 456.879 423.986 456.931 457.628 449.595C479.74 444.734 526.863 445.972 556.565 447.395H557V374.515L556.565 374.331C548.316 370.774 537.352 367.468 525.664 367.745C519.404 367.864 513.221 369.141 507.426 371.512C496.41 376.056 488.53 379.771 481.73 382.655C469.422 387.924 460.646 390.466 442.83 390.69C435.469 390.602 428.217 388.897 421.588 385.698C403.983 377.874 387.814 363.991 364.292 367.718C331.796 372.855 294.794 389.004 247.684 380.258C200.575 371.512 168.896 363.543 142.343 363.543C133.001 363.543 124.093 363.411 114.908 363.899C98.0143 364.768 80.1324 367.692 56.6106 377.163C38.1104 384.513 19.2101 390.815 0 396.038Z" fill="#89D6F4"/>
<path d="M0 407.655V439.479C11.4512 437.45 30.6772 435.685 57.2563 438.82C103.009 444.194 125.226 412.582 152.134 411.344C179.043 410.105 196.543 426.03 233.492 436.778C270.442 447.527 300.842 442.179 351.971 429.402C403.1 416.626 418.597 444.194 446.19 434.776C473.784 425.358 532.991 438.148 553.851 428.73C554.781 428.311 555.687 427.841 556.565 427.321C556.716 427.243 556.861 427.155 557 427.058V398.672L556.565 398.159C552.425 393.389 547.665 389.194 542.413 385.685C523.569 372.895 515.504 384.368 473.112 399.239C430.72 414.11 427.07 399.384 410.519 394.576C402.889 392.363 394.284 389.926 385.403 387.568C375.467 384.934 365.201 382.3 355.595 380.153C330.874 374.634 319.212 380.864 305.033 388.425C297.29 392.818 289.133 396.44 280.681 399.239C250.373 408.775 197.241 395.103 171.004 395.103C144.768 395.103 111.113 372.895 63.8187 383.656C41.5385 388.67 20.0612 396.746 0 407.655Z" fill="#B3E3F6"/>
<path d="M160.686 437.924C152.892 437.924 146.573 434.51 146.573 430.298C146.573 426.086 152.892 422.671 160.686 422.671C168.481 422.671 174.8 426.086 174.8 430.298C174.8 434.51 168.481 437.924 160.686 437.924Z" fill="#B3E3F6"/>
<path d="M320.701 356.681C320.701 360.896 324.391 367.863 364.292 360.461C371.948 359.038 378.392 353.269 378.392 349.067C378.392 344.865 372.08 341.441 364.292 341.441C356.504 341.441 320.701 352.479 320.701 356.681Z" fill="#89D6F4"/>
<path d="M522.449 402.874C538.196 398.238 478.343 418.773 439.009 418.391C410.189 418.114 380.25 411.014 380.25 411.014C380.25 411.014 438.284 427.703 522.449 402.874Z" fill="#E1F4FD"/>
<path d="M556.565 347.882V472H557V348.185L556.565 347.882Z" fill="#B3E3F6"/>
</g>
<defs>
<clipPath id="clip0_276_182">
<rect width="557" height="472" rx="16" transform="matrix(-1 0 0 1 557 0)" fill="white"/>
</clipPath>
</defs>
</svg>
