<svg width="33" height="33" viewBox="0 0 33 33" fill="none" xmlns="http://www.w3.org/2000/svg">
<rect width="32.4138" height="32.4138" rx="16.2069" fill="white"/>
<path d="M16.0261 6C13.6572 5.9997 11.3655 6.84248 9.56119 8.3775C7.75689 9.91252 6.55779 12.0396 6.17851 14.3779C5.79923 16.7163 6.26453 19.1133 7.49113 21.1399C8.71772 23.1666 10.6255 24.6905 12.8731 25.439C13.3731 25.529 13.5521 25.222 13.5521 24.958C13.5521 24.721 13.5441 24.093 13.5411 23.258C10.7661 23.858 10.1801 21.92 10.1801 21.92C9.99742 21.317 9.60469 20.7993 9.07311 20.461C8.17311 19.842 9.14211 19.856 9.14211 19.856C9.78211 19.944 10.3471 20.323 10.6691 20.884C10.8042 21.1297 10.9867 21.3462 11.2059 21.521C11.4251 21.6959 11.6768 21.8255 11.9464 21.9026C12.216 21.9797 12.4982 22.0026 12.7767 21.9701C13.0552 21.9375 13.3245 21.8502 13.5691 21.713C13.6151 21.207 13.8411 20.734 14.2041 20.379C11.9901 20.128 9.66211 19.272 9.66211 15.449C9.64982 14.4602 10.017 13.5043 10.6881 12.778C10.3845 11.9173 10.4202 10.9733 10.7881 10.138C10.7881 10.138 11.6251 9.869 13.5301 11.159C15.164 10.711 16.8883 10.711 18.5221 11.159C20.4281 9.868 21.2641 10.138 21.2641 10.138C21.6341 10.973 21.6691 11.918 21.3641 12.778C22.0377 13.5042 22.4045 14.4626 22.3881 15.453C22.3881 19.286 20.0581 20.128 17.8361 20.375C18.3161 20.865 18.5611 21.537 18.5111 22.221C18.5111 23.555 18.4991 24.631 18.4991 24.958C18.4991 25.225 18.6771 25.535 19.1861 25.437C21.4328 24.6872 23.3393 23.1625 24.5647 21.1357C25.79 19.1088 26.2542 16.7121 25.8741 14.3743C25.4941 12.0365 24.2946 9.91029 22.4903 8.37599C20.6859 6.84169 18.3946 5.99946 16.0261 6Z" fill="black"/>
</svg>
