<svg width="240" height="240" viewBox="0 0 240 240" fill="none" xmlns="http://www.w3.org/2000/svg">
<g filter="url(#filter0_d_476_90)">
<circle cx="120" cy="116" r="64" fill="url(#paint0_linear_476_90)" shape-rendering="crispEdges"/>
</g>
<g clip-path="url(#clip0_476_90)">
<path d="M78.8 85.95L122.11 68L163.27 85.95L122.11 104.31L78.8 85.95Z" fill="#006786"/>
<path d="M90 85.4301L122.404 72L153.2 85.4301L122.404 99.167L90 85.4301Z" fill="#1184A7"/>
<path d="M122.11 164.72L78.8 146.35V85.95L122.11 104.31V164.72Z" fill="#0093BF"/>
<path d="M164.13 144.5L122.11 164.72V104.31L164.13 85.95V144.5Z" fill="#39C0F0"/>
<path d="M164.13 118.78L177.34 123.2L121.47 150.78L57.51 121.84L78.8 116.43" stroke="#F68849" stroke-miterlimit="10"/>
<path d="M164.13 109.06L177.34 113.48L121.47 141.06L57.51 112.12L78.8 106.71" stroke="#2DBCAF" stroke-miterlimit="10"/>
<path d="M164.13 101.26L177.34 105.68L121.47 133.25L57.51 104.32L78.8 98.9099" stroke="#B3E3F6" stroke-miterlimit="10"/>
</g>
<defs>
<filter id="filter0_d_476_90" x="0.804733" y="0.970414" width="238.391" height="238.391" filterUnits="userSpaceOnUse" color-interpolation-filters="sRGB">
<feFlood flood-opacity="0" result="BackgroundImageFix"/>
<feColorMatrix in="SourceAlpha" type="matrix" values="0 0 0 0 0 0 0 0 0 0 0 0 0 0 0 0 0 0 127 0" result="hardAlpha"/>
<feOffset dy="4.16568"/>
<feGaussianBlur stdDeviation="27.5976"/>
<feComposite in2="hardAlpha" operator="out"/>
<feColorMatrix type="matrix" values="0 0 0 0 0 0 0 0 0 0 0 0 0 0 0 0 0 0 0.25 0"/>
<feBlend mode="normal" in2="BackgroundImageFix" result="effect1_dropShadow_476_90"/>
<feBlend mode="normal" in="SourceGraphic" in2="effect1_dropShadow_476_90" result="shape"/>
</filter>
<linearGradient id="paint0_linear_476_90" x1="120" y1="52" x2="120" y2="163" gradientUnits="userSpaceOnUse">
<stop stop-color="#67D3FA"/>
<stop offset="1" stop-color="#0B5853" stop-opacity="0"/>
</linearGradient>
<clipPath id="clip0_476_90">
<rect width="122.65" height="96.72" fill="white" transform="translate(56 68)"/>
</clipPath>
</defs>
</svg>
