<svg width="39" height="39" viewBox="0 0 39 39" fill="none" xmlns="http://www.w3.org/2000/svg">
<rect y="0.369507" width="38.5302" height="38.5302" fill="white"/>
<path d="M21.1541 12.5682V15.5197C21.1541 16.1946 20.6101 16.7386 19.9352 16.7386H10.7887C10.1037 16.7386 9.56982 16.1745 9.56982 15.4995C9.5799 14.3613 10.0332 13.3237 10.7887 12.5682C11.5442 11.8127 12.5918 11.3494 13.7402 11.3494H19.9352C20.6101 11.3494 21.1541 11.8933 21.1541 12.5682Z" fill="#006685"/>
<path d="M9.56982 19.4684V24.5051C9.56982 26.8118 11.4334 28.6754 13.7402 28.6754H25.5359C27.8427 28.6754 29.7163 26.8018 29.7163 24.495V19.4684C29.7163 18.7935 29.1724 18.2496 28.4975 18.2496H10.7887C10.1138 18.2496 9.56982 18.7935 9.56982 19.4684ZM15.6138 25.3009H13.5991C13.1861 25.3009 12.8436 24.9584 12.8436 24.5454C12.8436 24.1324 13.1861 23.7899 13.5991 23.7899H15.6138C16.0268 23.7899 16.3693 24.1324 16.3693 24.5454C16.3693 24.9584 16.0268 25.3009 15.6138 25.3009ZM22.1614 25.3009H18.1321C17.7191 25.3009 17.3766 24.9584 17.3766 24.5454C17.3766 24.1324 17.7191 23.7899 18.1321 23.7899H22.1614C22.5744 23.7899 22.9169 24.1324 22.9169 24.5454C22.9169 24.9584 22.5744 25.3009 22.1614 25.3009Z" fill="#006685"/>
<path d="M27.6714 9.68726H24.7099C23.4306 9.68726 22.665 10.4528 22.665 11.7321V14.6937C22.665 15.973 23.4306 16.7385 24.7099 16.7385H27.6714C28.9508 16.7385 29.7163 15.973 29.7163 14.6937V11.7321C29.7163 10.4528 28.9508 9.68726 27.6714 9.68726ZM25.6971 15.2981C25.6669 15.3283 25.5964 15.3686 25.546 15.3686L24.4984 15.5197C24.4682 15.5297 24.4279 15.5297 24.3976 15.5297C24.2465 15.5297 24.1156 15.4794 24.0249 15.3786C23.9041 15.2578 23.8537 15.0865 23.8839 14.9052L24.035 13.8576C24.0451 13.8072 24.0753 13.7367 24.1055 13.7065L25.818 11.994C25.8482 12.0645 25.8784 12.1451 25.9086 12.2257C25.9489 12.3063 25.9892 12.3768 26.0295 12.4473C26.0597 12.5078 26.1 12.5682 26.1403 12.6085C26.1806 12.6689 26.2209 12.7294 26.2511 12.7596C26.2713 12.7898 26.2813 12.7999 26.2914 12.81C26.3821 12.9208 26.4828 13.0215 26.5735 13.092C26.5936 13.1122 26.6138 13.1323 26.6238 13.1323C26.6742 13.1726 26.7346 13.223 26.7749 13.2532C26.8354 13.2935 26.8857 13.3338 26.9462 13.364C27.0167 13.4043 27.0973 13.4446 27.1779 13.4849C27.2584 13.5252 27.339 13.5554 27.4095 13.5755L25.6971 15.2981ZM28.1046 12.8906L27.7722 13.223C27.7621 13.2431 27.7319 13.2532 27.7017 13.2532C27.6916 13.2532 27.6815 13.2532 27.6714 13.2532C26.9462 13.0417 26.372 12.4675 26.1605 11.7422C26.1504 11.7019 26.1605 11.6616 26.1907 11.6314L26.5231 11.299C27.0671 10.755 27.5808 10.7651 28.1147 11.299C28.3867 11.571 28.5176 11.8329 28.5176 12.0948C28.5075 12.3567 28.3766 12.6186 28.1046 12.8906Z" fill="#006685"/>
</svg>
