<svg width="48" height="40" viewBox="0 0 48 40" fill="none" xmlns="http://www.w3.org/2000/svg">
<path d="M13.9694 18.3459L17.5157 21.5667L11.3244 24.4151C11.1757 25.9728 10.5292 27.4412 9.48084 28.6028C8.43244 29.7644 7.03782 30.5576 5.50349 30.8648C4.51468 31.0682 3.8982 29.7885 4.67744 29.1476C5.26401 28.6589 5.74864 28.0595 6.10369 27.3836C6.54908 26.5412 6.7794 25.6018 6.77415 24.6489C6.7689 23.6961 6.52825 22.7593 6.0736 21.9219C5.61895 21.0845 4.96439 20.3724 4.16815 19.849C3.3719 19.3256 2.45864 19.007 1.50959 18.9217C1.29195 18.9002 1.08765 18.8069 0.928919 18.6565C0.770187 18.506 0.666052 18.307 0.632937 18.0909C0.599823 17.8747 0.639613 17.6536 0.746034 17.4626C0.852454 17.2715 1.01945 17.1213 1.22068 17.0357C2.73698 16.3883 4.42807 16.2748 6.01732 16.7135C7.60657 17.1522 8.99991 18.1172 9.96941 19.4507L13.5177 17.823C13.6464 18.0151 13.7981 18.1907 13.9694 18.3459V18.3459Z" stroke="url(#paint0_linear_645_188)" stroke-width="1.40387" stroke-miterlimit="10"/>
<path d="M46.3886 12.6736C46.5558 12.6666 46.7206 12.7159 46.8565 12.8135C46.9925 12.9111 47.0918 13.0514 47.1387 13.2121C47.1855 13.3728 47.1772 13.5445 47.115 13.6999C47.0528 13.8553 46.9403 13.9853 46.7955 14.0693C45.3033 14.9242 43.5567 15.2239 41.8648 14.9152C40.1729 14.6065 38.6446 13.7095 37.5504 12.3826L32.7345 14.5861L31.9085 10.7204C31.8219 10.32 31.6535 9.94184 31.4141 9.60951L35.8902 7.55864C35.9363 5.92353 36.532 4.35165 37.5811 3.0966C38.6302 1.84154 40.0715 0.976507 41.6725 0.641043C42.7447 0.417238 43.3774 1.77634 42.5392 2.48438C41.631 3.25699 40.9838 4.29139 40.6861 5.446C40.3884 6.6006 40.4548 7.819 40.8762 8.93442C41.2976 10.0498 42.0534 11.0078 43.0402 11.6771C44.0269 12.3465 45.1964 12.6945 46.3886 12.6736V12.6736Z" stroke="url(#paint1_linear_645_188)" stroke-width="1.40387" stroke-miterlimit="10"/>
<path d="M38.3703 37.3427L34.0813 39.1555C33.4057 39.4428 32.6472 39.4675 31.9544 39.2248C31.2615 38.982 30.6842 38.4893 30.3357 37.8432L24.1587 26.3417C23.9168 25.8905 23.5612 25.5103 23.1271 25.2389L18.2156 22.1464C18.0711 22.0524 17.935 21.9462 17.8087 21.829L17.5157 21.5665L13.9694 18.3458C13.798 18.1899 13.6463 18.0136 13.5178 17.8208C13.1851 17.3326 13.0072 16.7555 13.0071 16.1647V12.9887C13.0069 11.978 13.2383 10.9807 13.6834 10.0732C14.1284 9.16577 14.7754 8.37231 15.5747 7.7537L18.883 5.19419C20.1566 4.20824 21.7461 3.72087 23.3535 3.82351C24.9609 3.92615 26.4755 4.61174 27.6134 5.75167L31.1108 9.25116C31.5122 9.65327 31.7891 10.1626 31.9084 10.7181L32.7344 14.5838L33.9552 20.3356C34.0008 20.5458 34.069 20.7504 34.1587 20.946L39.8901 33.3834C40.0576 33.7421 40.1511 34.1308 40.1651 34.5264C40.179 34.922 40.1131 35.3163 39.9712 35.6859C39.8293 36.0555 39.6145 36.3926 39.3394 36.6773C39.0643 36.962 38.7347 37.1883 38.3703 37.3427V37.3427Z" stroke="url(#paint2_linear_645_188)" stroke-width="1.40387" stroke-miterlimit="10"/>
<path d="M16.3274 7.17188L16.7241 13.3204" stroke="url(#paint3_linear_645_188)" stroke-width="1.40387" stroke-miterlimit="10" stroke-linecap="round"/>
<path d="M20.1016 4.84644L21.07 12.2829" stroke="url(#paint4_linear_645_188)" stroke-width="1.40387" stroke-miterlimit="10" stroke-linecap="round"/>
<path d="M24.8809 4.47217L25.4343 9.13137" stroke="url(#paint5_linear_645_188)" stroke-width="1.40387" stroke-miterlimit="10" stroke-linecap="round"/>
<defs>
<linearGradient id="paint0_linear_645_188" x1="0.621582" y1="16.4509" x2="19.039" y2="21.4669" gradientUnits="userSpaceOnUse">
<stop offset="0.572622" stop-color="#05FAE4"/>
<stop offset="1" stop-color="#00AADE"/>
</linearGradient>
<linearGradient id="paint1_linear_645_188" x1="31.4141" y1="0.616455" x2="48.7425" y2="5.02312" gradientUnits="userSpaceOnUse">
<stop offset="0.572622" stop-color="#05FAE4"/>
<stop offset="1" stop-color="#00AADE"/>
</linearGradient>
<linearGradient id="paint2_linear_645_188" x1="13.0071" y1="3.81006" x2="43.8391" y2="9.28705" gradientUnits="userSpaceOnUse">
<stop offset="0.572622" stop-color="#05FAE4"/>
<stop offset="1" stop-color="#00AADE"/>
</linearGradient>
<linearGradient id="paint3_linear_645_188" x1="16.3274" y1="7.17188" x2="16.7919" y2="7.17885" gradientUnits="userSpaceOnUse">
<stop offset="0.572622" stop-color="#05FAE4"/>
<stop offset="1" stop-color="#00AADE"/>
</linearGradient>
<linearGradient id="paint4_linear_645_188" x1="20.1016" y1="4.84644" x2="21.2346" y2="4.88078" gradientUnits="userSpaceOnUse">
<stop offset="0.572622" stop-color="#05FAE4"/>
<stop offset="1" stop-color="#00AADE"/>
</linearGradient>
<linearGradient id="paint5_linear_645_188" x1="24.8809" y1="4.47217" x2="25.5284" y2="4.49007" gradientUnits="userSpaceOnUse">
<stop offset="0.572622" stop-color="#05FAE4"/>
<stop offset="1" stop-color="#00AADE"/>
</linearGradient>
</defs>
</svg>
