<svg width="608" height="320" viewBox="0 0 608 320" fill="none" xmlns="http://www.w3.org/2000/svg">
<g clip-path="url(#clip0_276_237)">
<g filter="url(#filter0_f_276_237)">
<ellipse cx="212.5" cy="159.5" rx="202.5" ry="120.5" fill="#106078"/>
</g>
<path d="M0.943063 206.773C0.943063 206.773 -4.7549 237.747 11.8608 266.622C20.6136 281.883 38.4247 293.704 38.4247 293.704V270.806L0.943063 206.773Z" fill="#A34B24"/>
<path d="M324.345 7.96917V22.3004C324.345 22.3004 376.079 39.567 399.269 56.621C412.886 66.5552 422.889 80.662 427.759 96.7989L457.51 85.8811L396.918 24.3857L325.196 7.76994L324.345 7.96917Z" fill="#A34B24"/>
<path d="M484.792 116.058C460.884 176.809 384.579 203.785 278.921 175.734C272.134 173.954 181.684 161.681 175.654 161.482C135.742 160.154 101.527 170.779 88.179 191.446C73.3563 214.371 92.1636 238.637 128.383 258.068C142.942 265.904 158.138 272.494 173.808 277.766C172.068 278.191 38.3318 277.766 38.3318 277.766C-6.42839 253.088 -6.94639 201.487 13.8133 169.372C41.9312 125.9 104.928 87.5812 186.824 95.9489C193.465 96.6262 289.095 120.72 295.271 122.194C352.224 135.702 408.62 126.179 426.696 98.167C427.055 97.6224 427.387 97.0778 427.706 96.5333C440.164 75.4814 427.825 58.2945 400.823 38.9958C381.325 25.063 324.359 7.96917 324.359 7.96917H325.514L326.736 7.90276H438.557C460.539 21.0386 507.743 57.5242 484.792 116.058Z" fill="#F68849"/>
<path d="M390.211 7.76994C401.788 12.8407 412.899 18.9161 423.415 25.9264C475.215 60.8181 477.593 128.476 394.806 151.481C350.365 163.82 173.117 132.673 173.117 132.673C108.035 122.499 77.4869 150.471 77.4869 150.471C-5.93705 218.103 88.9891 277.766 88.9891 277.766" stroke="#FDD7C0" stroke-width="1.3282" stroke-miterlimit="10"/>
<path d="M173.701 277.779H38.3583V293.704H173.701V277.779Z" fill="#CA622D"/>
<path d="M276.955 250.763C307.028 268.995 341.535 278.608 376.703 278.549C409.452 278.536 441.658 270.18 470.282 254.269C498.907 238.359 523.006 215.418 540.306 187.612C557.606 159.805 567.537 128.05 569.163 95.3408C570.788 62.632 564.053 30.0485 549.594 0.664093" stroke="#F37123" stroke-width="4" stroke-miterlimit="10" stroke-linecap="round"/>
<path d="M565.692 123.748C588.85 123.748 607.623 104.975 607.623 81.8168C607.623 58.6589 588.85 39.8857 565.692 39.8857C542.534 39.8857 523.761 58.6589 523.761 81.8168C523.761 104.975 542.534 123.748 565.692 123.748Z" fill="#FDD7C0"/>
<path d="M565.692 116.802C585.013 116.802 600.677 101.138 600.677 81.8169C600.677 62.4954 585.013 46.8322 565.692 46.8322C546.37 46.8322 530.707 62.4954 530.707 81.8169C530.707 101.138 546.37 116.802 565.692 116.802Z" fill="#FAB289"/>
<path d="M565.692 108.832C580.612 108.832 592.707 96.7371 592.707 81.8168C592.707 66.8966 580.612 54.8013 565.692 54.8013C550.772 54.8013 538.676 66.8966 538.676 81.8168C538.676 96.7371 550.772 108.832 565.692 108.832Z" fill="#F37021"/>
<path d="M581.803 93.1464L565.466 98.8311L549.581 93.1464V70.4475L565.692 64.8027L581.803 70.4475V93.1464Z" fill="white" stroke="#F37123" stroke-width="1.3282" stroke-miterlimit="10" stroke-linecap="round"/>
<path d="M565.692 98.831V75.7603L581.418 70.9124" fill="white"/>
<path d="M565.692 98.831V75.7603L581.418 70.9124" stroke="#F37123" stroke-width="1.3282" stroke-miterlimit="10" stroke-linecap="round"/>
<path d="M565.692 75.7603L549.581 70.4475" stroke="#F37123" stroke-width="1.3282" stroke-miterlimit="10" stroke-linecap="round"/>
<path d="M524.491 248.705C547.649 248.705 566.422 229.931 566.422 206.773C566.422 183.616 547.649 164.842 524.491 164.842C501.333 164.842 482.56 183.616 482.56 206.773C482.56 229.931 501.333 248.705 524.491 248.705Z" fill="#7CF9E2"/>
<path d="M524.491 241.758C543.813 241.758 559.476 226.095 559.476 206.773C559.476 187.452 543.813 171.789 524.491 171.789C505.17 171.789 489.507 187.452 489.507 206.773C489.507 226.095 505.17 241.758 524.491 241.758Z" fill="#48D7BD"/>
<path d="M524.491 233.789C539.411 233.789 551.507 221.694 551.507 206.773C551.507 191.853 539.411 179.758 524.491 179.758C509.571 179.758 497.476 191.853 497.476 206.773C497.476 221.694 509.571 233.789 524.491 233.789Z" fill="#2DBCAF"/>
<path d="M516.389 214.039L516.403 214.065L510.771 216.283L504.303 199.854L509.921 197.636L514.158 208.407L542.462 197.264L544.68 202.882L516.389 214.039Z" fill="white"/>
<path d="M395.816 319.71C418.974 319.71 437.747 300.937 437.747 277.779C437.747 254.621 418.974 235.848 395.816 235.848C372.658 235.848 353.885 254.621 353.885 277.779C353.885 300.937 372.658 319.71 395.816 319.71Z" fill="#FDD7C0"/>
<path d="M395.816 312.763C415.137 312.763 430.8 297.1 430.8 277.779C430.8 258.457 415.137 242.794 395.816 242.794C376.494 242.794 360.831 258.457 360.831 277.779C360.831 297.1 376.494 312.763 395.816 312.763Z" fill="#FAB289"/>
<path d="M395.816 304.794C410.736 304.794 422.831 292.699 422.831 277.779C422.831 262.859 410.736 250.763 395.816 250.763C380.895 250.763 368.8 262.859 368.8 277.779C368.8 292.699 380.895 304.794 395.816 304.794Z" fill="#F37021"/>
<path d="M391.419 255.014H400.053C400.053 255.014 399.428 259.144 400.916 260.194C403.041 261.681 402.443 265.945 402.364 266.901C402.032 270.301 401.58 273.967 401.58 273.967C401.576 274.426 401.392 274.865 401.066 275.189C400.74 275.512 400.299 275.694 399.84 275.694C399.414 275.696 399.002 275.54 398.685 275.255V277.673C398.693 278.131 398.525 278.574 398.216 278.913C397.908 279.251 397.481 279.458 397.024 279.492C396.622 279.509 396.226 279.382 395.909 279.134V279.851C395.905 280.31 395.72 280.749 395.394 281.073C395.068 281.396 394.628 281.578 394.169 281.577C393.941 281.58 393.716 281.537 393.506 281.45C393.296 281.363 393.106 281.235 392.947 281.073C392.783 280.914 392.654 280.724 392.565 280.514C392.476 280.304 392.429 280.079 392.429 279.851V278.802C392.305 279.127 392.084 279.407 391.797 279.604C391.51 279.8 391.17 279.905 390.822 279.904C390.593 279.906 390.366 279.862 390.154 279.775C389.942 279.688 389.749 279.56 389.587 279.398C389.425 279.236 389.297 279.044 389.211 278.832C389.124 278.62 389.08 278.393 389.082 278.164V269.039L388.298 270.766C388.124 271.17 387.807 271.496 387.407 271.68C387.007 271.864 386.553 271.893 386.133 271.762C385.791 271.643 385.495 271.421 385.285 271.126C385.076 270.83 384.964 270.477 384.964 270.115C384.96 269.868 385.01 269.623 385.11 269.398L389.029 260.751C389.467 259.782 391.419 258.308 391.419 257.232V255.014Z" fill="white" stroke="#F37123" stroke-width="0.996147" stroke-miterlimit="10" stroke-linecap="round"/>
<path d="M392.429 278.868V268.561" stroke="#F37123" stroke-width="0.996147" stroke-miterlimit="10" stroke-linecap="round"/>
<path d="M395.909 279.147V268.442" stroke="#F37123" stroke-width="0.996147" stroke-miterlimit="10" stroke-linecap="round"/>
<path d="M398.685 275.919V268.309" stroke="#F37123" stroke-width="0.996147" stroke-miterlimit="10" stroke-linecap="round"/>
<path d="M401.009 289.719C401.012 290.519 400.858 291.312 400.555 292.052C400.251 292.793 399.805 293.466 399.241 294.033C398.678 294.601 398.007 295.052 397.269 295.36C396.531 295.668 395.739 295.827 394.939 295.829H394.341C392.836 295.672 391.442 294.962 390.429 293.838C389.416 292.713 388.855 291.253 388.855 289.739C388.855 288.226 389.416 286.766 390.429 285.641C391.442 284.516 392.836 283.807 394.341 283.65H394.939C396.547 283.657 398.087 284.298 399.223 285.435C400.36 286.572 401.002 288.112 401.009 289.719Z" fill="white"/>
<path d="M394.939 293C396.751 293 398.22 291.531 398.22 289.719C398.22 287.908 396.751 286.439 394.939 286.439C393.127 286.439 391.658 287.908 391.658 289.719C391.658 291.531 393.127 293 394.939 293Z" fill="white" stroke="#F37021" stroke-width="0.996147" stroke-miterlimit="10"/>
<path d="M326.192 88.1258V240.31H159.769C150.859 240.307 142.315 236.765 136.016 230.464C129.717 224.162 126.179 215.617 126.179 206.707V65.666C126.179 60.8446 147.669 87.1031 149.9 83.2114L326.192 88.1258Z" fill="#2DBCAF"/>
<path d="M326.192 38.9029V62.8635H249.01L238.942 38.9029H326.192Z" fill="#48D7BD"/>
<path d="M250.179 65.666H326.192V92.4424H261.429L250.179 65.666Z" fill="#48D7BD"/>
<path d="M308.062 145.703C303.257 145.703 298.649 147.612 295.251 151.009C291.854 154.407 289.945 159.015 289.945 163.82C289.945 168.624 291.854 173.233 295.251 176.63C298.649 180.028 303.257 181.936 308.062 181.936H326.192V145.703H308.062ZM307.291 169.106C306.241 169.106 305.213 168.794 304.34 168.211C303.466 167.627 302.785 166.797 302.383 165.826C301.981 164.855 301.876 163.787 302.081 162.757C302.286 161.726 302.792 160.779 303.535 160.036C304.278 159.293 305.224 158.787 306.255 158.582C307.286 158.377 308.354 158.483 309.325 158.885C310.295 159.287 311.125 159.968 311.709 160.841C312.293 161.715 312.604 162.742 312.604 163.793C312.604 165.202 312.044 166.553 311.048 167.55C310.052 168.546 308.7 169.106 307.291 169.106Z" fill="#48D7BD"/>
<path d="M155.426 112.007C155.426 105.581 150.216 100.372 143.791 100.372C137.365 100.372 132.156 105.581 132.156 112.007V205.087C132.156 211.513 137.365 216.722 143.791 216.722C150.216 216.722 155.426 211.513 155.426 205.087V112.007Z" fill="#7CF9E2"/>
<path d="M261.429 92.4424H152.942C149.376 92.5219 145.831 91.8882 142.513 90.5785C139.196 89.2689 136.174 87.3098 133.624 84.8161C131.074 82.3224 129.048 79.3445 127.665 76.0571C126.282 72.7697 125.569 69.2392 125.569 65.6726C125.569 62.1061 126.282 58.5755 127.665 55.2882C129.048 52.0008 131.074 49.0228 133.624 46.5292C136.174 44.0355 139.196 42.0764 142.513 40.7667C145.831 39.4571 149.376 38.8234 152.942 38.9029H238.929L249.01 62.8104H148.373C148.025 62.8443 147.702 63.0066 147.467 63.2656C147.232 63.5246 147.102 63.8619 147.102 64.2116C147.102 64.5614 147.232 64.8986 147.467 65.1576C147.702 65.4167 148.025 65.5789 148.373 65.6129H250.179L261.429 92.4424Z" fill="#7CF9E2"/>
<path d="M324.345 152.41H307.291C305.76 152.358 304.233 152.615 302.802 153.165C301.371 153.715 300.066 154.548 298.964 155.613C297.862 156.678 296.985 157.954 296.387 159.365C295.788 160.776 295.479 162.293 295.479 163.826C295.479 165.359 295.788 166.876 296.387 168.287C296.985 169.698 297.862 170.975 298.964 172.04C300.066 173.105 301.371 173.937 302.802 174.488C304.233 175.038 305.76 175.294 307.291 175.242H324.345" stroke="#2DBCAF" stroke-width="1.3282" stroke-miterlimit="10" stroke-linecap="round"/>
</g>
<defs>
<filter id="filter0_f_276_237" x="-40" y="-11" width="505" height="341" filterUnits="userSpaceOnUse" color-interpolation-filters="sRGB">
<feFlood flood-opacity="0" result="BackgroundImageFix"/>
<feBlend mode="normal" in="SourceGraphic" in2="BackgroundImageFix" result="shape"/>
<feGaussianBlur stdDeviation="25" result="effect1_foregroundBlur_276_237"/>
</filter>
<clipPath id="clip0_276_237">
<rect width="607.623" height="319.71" fill="white"/>
</clipPath>
</defs>
</svg>
