<svg width="33" height="33" viewBox="0 0 33 33" fill="none" xmlns="http://www.w3.org/2000/svg">
<rect width="32.4138" height="32.4138" rx="16.2069" fill="white"/>
<g clip-path="url(#clip0_152_275)">
<path d="M21.6092 13.5062H17.8276V12.4258H21.6092V13.5062ZM22.5416 18.9085C22.3028 19.6092 21.4455 20.5292 19.7859 20.5292C18.1252 20.5292 16.7801 19.5952 16.7801 17.4634C16.7801 15.3511 18.0361 14.2653 19.733 14.2653C21.3979 14.2653 22.4147 15.228 22.6367 16.6563C22.6788 16.9297 22.6956 17.2981 22.688 17.8124H18.3516C18.4218 19.5471 20.2332 19.6017 20.8302 18.9085H22.5416ZM18.3894 16.7476H21.0717C21.0149 15.9119 20.4579 15.5489 19.7335 15.5489C18.9415 15.5489 18.5034 15.9637 18.3894 16.7476ZM13.2172 20.5227H9.72412V12.4371H13.4803C16.4386 12.4809 16.4948 15.3781 14.9498 16.168C16.8195 16.8486 16.8822 20.5227 13.2172 20.5227ZM11.3448 15.6672H13.281C14.6359 15.6672 14.8509 14.0465 13.1124 14.0465H11.3448V15.6672ZM13.1767 17.2878H11.3448V18.9172H13.1497C14.8001 18.9172 14.6991 17.2878 13.1767 17.2878Z" fill="black"/>
</g>
<defs>
<clipPath id="clip0_152_275">
<rect width="12.9655" height="12.9655" fill="white" transform="translate(9.72412 9.72437)"/>
</clipPath>
</defs>
</svg>
