<svg width="33" height="33" viewBox="0 0 33 33" fill="none" xmlns="http://www.w3.org/2000/svg">
<rect x="0.586182" y="0.000244141" width="32.4138" height="32.4138" rx="16.2069" fill="white"/>
<g clip-path="url(#clip0_152_287)">
<g clip-path="url(#clip1_152_287)">
<path fill-rule="evenodd" clip-rule="evenodd" d="M16.7931 9.72437C13.214 9.72437 10.3103 12.6281 10.3103 16.2071C10.3103 19.7861 13.214 22.6899 16.7931 22.6899C20.3651 22.6899 23.2758 19.7861 23.2758 16.2071C23.2758 12.6281 20.3651 9.72437 16.7931 9.72437ZM21.0749 12.7124C21.8731 13.6844 22.3148 14.9003 22.3266 16.158C22.144 16.1228 20.3159 15.7501 18.4737 15.9824C18.431 15.8905 18.3959 15.7922 18.3538 15.6939C18.2392 15.4235 18.1174 15.1561 17.9886 14.8922C20.0274 14.0624 20.9555 12.8674 21.0749 12.7124ZM16.7931 10.6811C18.1993 10.6811 19.4861 11.2078 20.4634 12.0727C20.3651 12.2132 19.5282 13.3315 17.5596 14.0694C16.6521 12.4034 15.6472 11.0387 15.4922 10.8281C15.9186 10.7285 16.3552 10.679 16.7931 10.6806V10.6811ZM14.4377 11.2008C14.5851 11.398 15.5694 12.7691 16.4905 14.4001C13.9028 15.0894 11.6177 15.0753 11.3719 15.0753C11.7306 13.3596 12.891 11.9323 14.4377 11.2008ZM11.2525 16.2141V16.0456C11.4918 16.0526 14.1773 16.0877 16.9411 15.2579C17.1026 15.5675 17.2501 15.8835 17.3906 16.2001C17.3203 16.2212 17.2431 16.2422 17.1728 16.2633C14.3183 17.1844 12.7991 19.7013 12.6727 19.9126C11.7583 18.8977 11.2524 17.5801 11.2525 16.2141ZM16.7931 21.7477C15.5624 21.7497 14.3667 21.3388 13.3972 20.5808C13.4955 20.3766 14.6203 18.2108 17.7422 17.1212C17.7563 17.1142 17.7639 17.1142 17.7774 17.1071C18.558 19.1249 18.874 20.8196 18.9588 21.3047C18.2906 21.5932 17.5596 21.7477 16.7931 21.7477ZM19.8799 20.7985C19.8238 20.4609 19.5282 18.844 18.8038 16.8538C20.5406 16.5799 22.0592 17.0299 22.2494 17.0931C22.0101 18.6328 21.1241 19.9617 19.8799 20.7985Z" fill="black"/>
</g>
</g>
<defs>
<clipPath id="clip0_152_287">
<rect width="12.9655" height="14.5862" fill="white" transform="translate(10.3103 8.91406)"/>
</clipPath>
<clipPath id="clip1_152_287">
<rect width="12.9655" height="12.9655" fill="white" transform="translate(10.3103 9.72437)"/>
</clipPath>
</defs>
</svg>
