<svg width="34" height="33" viewBox="0 0 34 33" fill="none" xmlns="http://www.w3.org/2000/svg">
<rect x="0.724121" y="0.000244141" width="32.4138" height="32.4138" rx="16.2069" fill="white"/>
<g clip-path="url(#clip0_152_284)">
<path d="M12.8259 22.2857H9.87313V12.818H12.8259V22.2857ZM11.3479 11.5265C10.4037 11.5265 9.63788 10.7478 9.63788 9.80765C9.63788 9.35608 9.81804 8.923 10.1387 8.60368C10.4594 8.28437 10.8944 8.10498 11.3479 8.10498C11.8015 8.10498 12.2364 8.28437 12.5571 8.60368C12.8778 8.923 13.058 9.35608 13.058 9.80765C13.058 10.7478 12.2918 11.5265 11.3479 11.5265ZM23.8771 22.2857H20.9307V17.6769C20.9307 16.5785 20.9085 15.1699 19.3955 15.1699C17.8603 15.1699 17.6251 16.3632 17.6251 17.5977V22.2857H14.6755V12.818H17.5075V14.1094H17.5488C17.943 13.3656 18.9059 12.5806 20.3426 12.5806C23.331 12.5806 23.8803 14.5399 23.8803 17.0849V22.2857H23.8771Z" fill="black"/>
</g>
<defs>
<clipPath id="clip0_152_284">
<rect width="14.2424" height="16.2069" fill="white" transform="translate(9.63788 8.10376)"/>
</clipPath>
</defs>
</svg>
