<svg width="336" height="84" viewBox="0 0 336 84" fill="none" xmlns="http://www.w3.org/2000/svg">
<path d="M38.22 42.72C38.0793 42.5795 38.0002 42.3888 38 42.19V41.81C38.0023 41.6116 38.0811 41.4217 38.22 41.28L43.36 36.15C43.4539 36.0553 43.5817 36.0021 43.715 36.0021C43.8483 36.0021 43.9761 36.0553 44.07 36.15L44.78 36.86C44.8741 36.9521 44.9271 37.0783 44.9271 37.21C44.9271 37.3417 44.8741 37.4678 44.78 37.56L40.33 42L44.78 46.44C44.8747 46.5339 44.9279 46.6617 44.9279 46.795C44.9279 46.9283 44.8747 47.0561 44.78 47.15L44.07 47.85C43.9761 47.9446 43.8483 47.9979 43.715 47.9979C43.5817 47.9979 43.4539 47.9446 43.36 47.85L38.22 42.72Z" fill="#BCBCBC"/>
<rect x="10.5" y="10.5" width="63" height="63" rx="5.5" stroke="#BCBCBC"/>
<rect x="94.5" y="10.5" width="63" height="63" rx="5.5" fill="#06C4B2"/>
<path d="M128.545 35.9091V49H125.387V38.8622H125.31L122.383 40.652V37.9162L125.611 35.9091H128.545Z" fill="white"/>
<rect x="94.5" y="10.5" width="63" height="63" rx="5.5" stroke="#06C4B2"/>
<path d="M205.226 49V46.7244L210.001 42.544C210.359 42.2202 210.663 41.924 210.915 41.6555C211.166 41.3828 211.358 41.1101 211.49 40.8374C211.622 40.5604 211.688 40.2599 211.688 39.9361C211.688 39.5739 211.609 39.2649 211.452 39.0092C211.294 38.7493 211.077 38.549 210.8 38.4084C210.523 38.2678 210.205 38.1974 209.847 38.1974C209.485 38.1974 209.168 38.272 208.895 38.4212C208.622 38.5661 208.409 38.777 208.256 39.054C208.107 39.331 208.032 39.6676 208.032 40.0639H205.034C205.034 39.1733 205.234 38.4041 205.635 37.7564C206.036 37.1087 206.598 36.6101 207.323 36.2607C208.051 35.907 208.897 35.7301 209.86 35.7301C210.853 35.7301 211.716 35.8963 212.449 36.2287C213.182 36.5611 213.749 37.0256 214.149 37.6222C214.554 38.2145 214.756 38.9027 214.756 39.6868C214.756 40.1854 214.656 40.6797 214.456 41.1697C214.256 41.6598 213.896 42.201 213.376 42.7933C212.86 43.3857 212.127 44.0952 211.177 44.9219L209.611 46.3665V46.4496H214.916V49H205.226Z" fill="#06C4B2"/>
<rect x="178.5" y="10.5" width="63" height="63" rx="5.5" stroke="#06C4B2"/>
<path d="M297.78 42.72C297.921 42.5795 298 42.3888 298 42.19V41.81C297.998 41.6116 297.919 41.4217 297.78 41.28L292.64 36.15C292.546 36.0553 292.418 36.0021 292.285 36.0021C292.152 36.0021 292.024 36.0553 291.93 36.15L291.22 36.86C291.126 36.9521 291.073 37.0783 291.073 37.21C291.073 37.3417 291.126 37.4678 291.22 37.56L295.67 42L291.22 46.44C291.125 46.5339 291.072 46.6617 291.072 46.795C291.072 46.9283 291.125 47.0561 291.22 47.15L291.93 47.85C292.024 47.9446 292.152 47.9979 292.285 47.9979C292.418 47.9979 292.546 47.9446 292.64 47.85L297.78 42.72Z" fill="#06C4B2"/>
<rect x="262.5" y="10.5" width="63" height="63" rx="5.5" stroke="#BCBCBC"/>
</svg>
