<svg width="34" height="33" viewBox="0 0 34 33" fill="none" xmlns="http://www.w3.org/2000/svg">
<rect x="0.862061" y="0.000244141" width="32.4138" height="32.4138" rx="16.2069" fill="white"/>
<g clip-path="url(#clip0_152_281)">
<path d="M22.8628 13.386C22.872 13.5111 22.872 13.6363 22.872 13.7614C22.872 17.5777 19.8641 21.9751 14.3665 21.9751C12.6728 21.9751 11.0994 21.5014 9.77588 20.6791C10.0165 20.7059 10.2479 20.7149 10.4978 20.7149C11.8953 20.7149 13.1818 20.2591 14.2091 19.4815C12.8949 19.4547 11.7935 18.6235 11.414 17.4794C11.5992 17.5062 11.7843 17.5241 11.9786 17.5241C12.247 17.5241 12.5154 17.4884 12.7653 17.4258C11.3956 17.1577 10.3682 15.9958 10.3682 14.5926V14.5569C10.7661 14.7714 11.229 14.9054 11.7194 14.9233C10.9142 14.4049 10.3867 13.5201 10.3867 12.519C10.3867 11.9828 10.5348 11.4912 10.7939 11.0622C12.2655 12.814 14.4775 13.958 16.9579 14.0831C16.9116 13.8686 16.8839 13.6452 16.8839 13.4218C16.8839 11.8309 18.2166 10.5349 19.8733 10.5349C20.734 10.5349 21.5115 10.8835 22.0575 11.4465C22.7332 11.3214 23.381 11.0801 23.9549 10.7494C23.7327 11.4198 23.2607 11.9828 22.6406 12.3403C23.2422 12.2778 23.8253 12.1169 24.3621 11.8934C23.9549 12.4654 23.4459 12.9749 22.8628 13.386Z" fill="black"/>
</g>
<defs>
<clipPath id="clip0_152_281">
<rect width="14.5862" height="12.1552" fill="white" transform="translate(9.77588 10.5349)"/>
</clipPath>
</defs>
</svg>
